<svg xmlns="http://www.w3.org/2000/svg" width="1000" height="308.042" viewBox="110.667 172.481 1000 308.042" xml:space="preserve"><path d="M174.926 267.63c-35.446 0-64.259 28.813-64.259 64.26v148.633h30.47v-82.5l11.194 11.81 44.776-17.614c25.5-9.951 42.084-32.966 42.084-60.324 0-35.446-28.813-64.265-64.265-64.265zm11.407 97.64-45.19 17.62v-50.995c0-20.524 15.341-35.239 33.789-35.239s33.789 14.922 33.789 35.239c0 12.85-6.218 26.95-22.388 33.375zm526.325-97.64c-35.445 0-64.259 28.813-64.259 64.26 0 35.445 28.814 64.259 64.26 64.259 35.445 0 64.259-28.814 64.259-64.26 0-35.446-28.814-64.259-64.26-64.259zm0 99.504c-19.483 0-33.789-15.543-33.789-35.24 0-19.695 14.72-35.238 33.79-35.238 19.483 0 33.789 15.543 33.789 35.239 0 19.696-14.306 35.239-33.79 35.239zm139.097-70.478c13.26 0 24.04 7.254 29.642 18.034l23.838-18.24c-11.609-17.206-31.092-28.607-53.48-28.607-35.451 0-64.265 28.813-64.265 64.259s28.814 64.26 64.265 64.26c22.181 0 41.866-11.402 53.48-28.607l-23.838-18.246c-5.603 10.785-16.383 18.039-29.642 18.039-19.489 0-33.789-15.543-33.789-35.239 0-19.696 14.715-35.653 33.79-35.653zm-259.953 0c13.27 0 24.05 7.254 29.648 18.034l23.837-18.24c-11.608-17.206-31.097-28.607-53.485-28.607-35.446 0-64.259 28.813-64.259 64.259s28.813 64.26 64.26 64.26c22.18 0 41.876-11.402 53.484-28.607l-23.837-18.246c-5.597 10.785-16.377 18.039-29.648 18.039-19.483 0-33.789-15.543-33.789-35.239 0-19.696 14.513-35.653 33.79-35.653zm-106.55-13.685c-10.366-10.78-24.045-15.335-38.35-15.335-29.855 0-60.112 27.156-60.112 64.259 0 37.102 30.257 64.26 60.111 64.26 14.306 0 27.985-4.557 38.351-15.337v11.608h30.476V271.565h-30.476zm-33.789 84.163c-19.478 0-34.203-15.543-34.203-35.24 0-19.695 15.134-35.238 34.203-35.238 19.489 0 33.79 15.543 33.79 35.239 0 19.696-14.301 35.239-33.79 35.239zm538.555-39.594h-13.68l52.859-56.177h-39.179l-42.705 46.024v-111.94h-30.47v186.985h30.47v-34.41l16.79-17.832 35.86 52.242h36.902zm-676.616-59.91c-35.446 0-64.26 28.813-64.26 64.26 0 35.445 28.814 64.259 64.26 64.259 21.145 0 41.043-10.153 52.45-25.909l-24.465-16.998c-2.905 4.769-12.23 13.88-27.985 13.88-14.508 0-26.329-8.703-31.299-21.347h92.664c1.041-4.556 1.455-9.117 1.455-13.886.196-35.44-27.369-64.259-62.82-64.259zm-31.092 50.373c4.976-12.65 16.791-21.347 31.092-21.347 14.513 0 25.5 8.703 30.061 21.347z" style="stroke-width:5.59700441"/><path d="M1092.22 374.186c-10.16 0-18.454 8.289-18.454 18.453 0 10.153 8.29 18.442 18.453 18.442 10.153 0 18.448-8.283 18.448-18.442 0-10.164-8.29-18.453-18.448-18.453z" style="fill:#069de0;stroke-width:5.59700441"/><path d="M1092.22 323.813c-10.16 0-18.454 8.289-18.454 18.453 0 10.153 8.29 18.442 18.453 18.442 10.153 0 18.448-8.283 18.448-18.442-.207-10.371-8.29-18.453-18.448-18.453z" style="fill:#6e55dc;stroke-width:5.59700441"/><path d="M1092.22 424.559c-10.16 0-18.454 8.29-18.454 18.453 0 10.153 8.29 18.442 18.453 18.442 10.153 0 18.448-8.283 18.448-18.442 0-10.164-8.29-18.453-18.448-18.453z" style="fill:#05ac3f;stroke-width:5.59700441"/><path d="M1092.22 273.227c-10.16 0-18.454 8.29-18.454 18.453 0 10.153 8.29 18.448 18.453 18.448 10.153 0 18.448-8.289 18.448-18.448-.207-10.158-8.29-18.453-18.448-18.453z" style="fill:#ef1541;stroke-width:5.59700441"/><path d="M1092.22 222.854c-10.16 0-18.454 8.29-18.454 18.453 0 10.153 8.29 18.448 18.453 18.448 10.153 0 18.448-8.29 18.448-18.448-.207-10.158-8.29-18.453-18.448-18.453z" style="fill:#ff7112;stroke-width:5.59700441"/><path d="M1092.22 172.481c-10.16 0-18.454 8.29-18.454 18.453 0 10.153 8.29 18.448 18.453 18.448 10.153 0 18.448-8.29 18.448-18.448-.207-10.158-8.29-18.453-18.448-18.453z" style="fill:#fccc12;stroke-width:5.59700441"/></svg>